<?xml version="1.0" standalone="no"?>
<!DOCTYPE svg PUBLIC "-//W3C//DTD SVG 20010904//EN"
 "http://www.w3.org/TR/2001/REC-SVG-20010904/DTD/svg10.dtd">
<svg version="1.0" xmlns="http://www.w3.org/2000/svg"
 width="1077.000000pt" height="1280.000000pt" viewBox="0 0 1077.000000 1280.000000"
 preserveAspectRatio="xMidYMid meet">
<metadata>
Created by potrace 1.15, written by Peter Selinger 2001-2017
</metadata>
<g transform="translate(0.000000,1280.000000) scale(0.100000,-0.100000)"
fill="#ffffff" stroke="none">
<path d="M5325 12786 c-69 -26 -105 -88 -105 -182 0 -23 -9 -84 -19 -137 -11
-52 -34 -193 -51 -313 -17 -121 -44 -313 -61 -429 -16 -115 -45 -286 -64 -380
-19 -93 -46 -253 -60 -355 -15 -102 -62 -414 -105 -695 -106 -692 -155 -1062
-146 -1111 11 -55 68 -108 138 -129 31 -9 144 -22 255 -30 109 -8 208 -17 221
-21 13 -4 47 -43 84 -96 77 -113 133 -175 209 -232 63 -48 164 -86 225 -86 19
0 34 -3 34 -7 -7 -240 -23 -475 -39 -548 -32 -156 -94 -254 -217 -341 -126
-90 -264 -129 -579 -164 -104 -12 -224 -29 -265 -38 -140 -31 -195 -19 -223
48 -6 15 -9 103 -8 213 1 146 -2 201 -14 243 -12 41 -15 97 -14 241 2 204 -6
252 -48 318 -20 30 -23 40 -12 43 8 3 35 26 60 51 38 37 49 56 58 101 12 56 5
122 -18 184 -10 25 -8 32 20 63 36 41 34 71 -9 117 -34 36 -117 76 -159 76
-40 0 -43 -17 -8 -58 30 -36 35 -111 9 -136 -22 -22 -29 -20 -58 15 -31 37
-33 45 -41 182 -7 133 -2 138 97 84 37 -20 70 -37 73 -37 10 0 5 67 -10 125
-18 67 -84 209 -166 360 -155 281 -191 458 -211 1035 -11 343 -11 345 10 403
30 79 29 193 -2 340 -33 153 -38 213 -26 272 26 123 26 121 -16 164 -46 45
-88 56 -258 66 l-108 6 7 -169 c10 -227 7 -240 -56 -275 -108 -60 -115 -130
-36 -335 60 -159 62 -175 33 -482 -51 -534 -129 -825 -292 -1087 -60 -96 -197
-382 -228 -475 -43 -127 -50 -219 -76 -988 -10 -319 -18 -400 -51 -565 -26
-127 -34 -143 -93 -182 -85 -58 -175 -72 -456 -73 -132 0 -218 -5 -264 -15
-38 -8 -137 -22 -220 -30 -181 -18 -270 -36 -339 -68 -56 -26 -118 -81 -141
-126 -8 -15 -47 -140 -86 -277 -171 -598 -322 -1033 -503 -1439 -24 -55 -50
-125 -57 -155 -37 -160 -126 -382 -260 -650 -43 -85 -123 -256 -180 -380 -151
-334 -232 -477 -347 -612 l-49 -57 176 -180 c156 -161 183 -184 244 -213 46
-21 92 -34 135 -37 52 -5 65 -9 62 -21 -2 -8 -6 -46 -9 -85 -6 -107 22 -171
112 -260 101 -99 179 -135 361 -166 110 -19 176 -24 310 -24 191 1 233 11 337
82 116 80 231 93 342 39 44 -22 93 -63 195 -166 75 -75 154 -150 176 -166 22
-16 60 -46 85 -68 93 -81 172 -102 437 -116 102 -6 213 -17 247 -24 73 -17
136 -43 136 -55 0 -16 70 -42 93 -35 37 11 77 55 77 85 0 93 -71 128 -336 164
-61 9 -138 23 -170 31 -33 9 -92 22 -132 29 -133 24 -274 108 -451 270 -116
106 -222 186 -276 211 -70 32 -174 48 -264 40 -73 -6 -122 -16 -421 -87 -122
-29 -149 -31 -287 -31 -142 1 -156 3 -207 27 -30 14 -67 40 -82 58 -94 110
-113 311 -50 501 18 53 26 98 26 145 0 144 30 301 125 656 72 270 101 402 114
531 5 49 21 139 36 199 36 149 43 256 21 290 -45 68 -66 7 -160 -455 -36 -173
-79 -371 -96 -440 -17 -69 -58 -237 -91 -375 -61 -259 -89 -356 -141 -487 -28
-70 -35 -79 -72 -98 -23 -11 -52 -20 -64 -20 -35 0 -85 24 -126 60 -34 31
-166 205 -166 220 0 3 45 92 100 196 109 206 201 402 317 674 41 96 114 263
163 370 158 348 357 839 545 1345 37 99 77 196 90 215 47 69 66 130 130 404
30 128 72 219 123 269 34 32 47 37 172 61 155 29 281 46 570 76 113 12 222 28
243 36 88 33 197 -3 248 -84 39 -61 38 -95 -4 -137 -25 -25 -45 -35 -83 -39
-119 -16 -154 -39 -154 -104 0 -27 9 -43 40 -75 l40 -40 93 7 c64 5 156 1 302
-13 571 -55 1050 -93 1395 -111 125 -6 945 -10 2110 -11 1886 -1 2119 3 2270
33 30 6 145 12 255 13 249 2 315 18 343 81 16 33 15 84 0 84 -28 0 -379 -30
-468 -40 -354 -38 -376 -39 -1880 -30 -1364 8 -2051 20 -2250 40 -47 4 -104
15 -127 24 -32 12 -253 45 -305 46 -5 0 -8 4 -8 8 0 49 439 81 1530 112 206 6
436 15 510 20 74 6 187 10 250 10 200 0 354 28 429 77 l26 17 -35 15 c-28 12
-78 16 -245 17 -198 0 -213 2 -258 23 -48 24 -78 56 -97 105 -12 32 -39 32
317 6 153 -11 395 -24 538 -30 143 -5 280 -15 305 -21 30 -8 111 -11 240 -8
399 7 465 5 600 -24 69 -14 163 -33 209 -42 152 -29 201 -63 124 -84 -58 -17
-270 -13 -395 6 -166 26 -621 25 -730 0 -126 -30 -149 -66 -69 -106 50 -26
260 -41 572 -41 310 0 547 21 789 71 81 17 119 19 255 14 290 -11 438 -33 561
-82 l61 -24 12 -117 c16 -156 44 -349 81 -562 17 -96 46 -294 65 -440 121
-924 210 -1407 314 -1705 83 -237 97 -398 37 -437 -6 -4 -27 -8 -46 -8 l-36 0
-26 83 c-64 196 -107 409 -168 832 -51 348 -65 437 -90 545 -11 47 -26 159
-35 250 -27 297 -51 407 -102 466 l-24 29 5 -230 c4 -148 14 -303 30 -435 14
-113 39 -322 56 -465 17 -143 32 -267 35 -275 11 -38 38 -254 65 -522 35 -338
61 -520 94 -666 l23 -103 -41 -33 c-59 -49 -143 -88 -311 -146 -188 -65 -281
-109 -350 -166 -30 -24 -55 -41 -55 -37 0 5 -7 58 -15 118 -8 61 -22 225 -30
365 -19 299 -38 484 -62 595 l-18 80 -6 -70 c-14 -152 -3 -712 20 -1090 4 -66
4 -134 -1 -151 -10 -36 -179 -215 -243 -256 -58 -38 -138 -52 -217 -38 -90 16
-171 51 -348 148 -209 115 -206 114 -237 110 -36 -4 -41 -33 -14 -86 28 -55
68 -100 105 -119 17 -9 59 -39 93 -67 132 -110 256 -165 389 -173 132 -9 249
31 349 117 33 29 55 40 78 40 109 0 161 48 235 215 29 66 65 135 80 153 24 29
76 60 229 137 29 15 113 44 186 65 74 21 156 47 182 59 139 62 178 142 148
303 -15 81 -15 90 1 131 19 51 45 77 169 172 50 39 105 90 122 113 26 38 30
52 29 105 0 56 -7 76 -76 217 -141 287 -256 675 -312 1055 -22 150 -42 334
-76 700 -16 182 -39 404 -50 495 -11 91 -24 247 -30 347 -22 378 -74 516 -223
587 -84 39 -167 55 -379 71 -106 8 -215 19 -243 25 -27 5 -93 14 -145 20 -52
7 -169 25 -260 41 -316 55 -387 65 -540 75 l-105 6 -33 77 c-45 105 -62 166
-62 222 0 65 12 91 67 147 27 27 65 67 86 89 43 46 116 84 262 138 234 87 300
159 362 400 12 45 17 146 22 415 8 413 7 419 -70 457 -190 93 -307 128 -479
144 -118 11 -152 10 -465 -17 -227 -19 -254 -26 -315 -81 -87 -78 -123 -181
-155 -443 -9 -74 -23 -173 -32 -220 -50 -278 76 -537 322 -661 130 -66 189
-138 221 -275 30 -130 4 -300 -59 -377 l-23 -29 -299 31 c-408 42 -543 50
-950 61 -458 12 -513 23 -585 120 -53 70 -93 154 -122 255 -21 75 -23 98 -23
345 0 258 1 266 23 313 50 101 165 185 344 251 172 64 207 68 573 70 359 2
392 7 449 56 75 66 96 172 95 488 -1 236 -7 204 123 657 123 430 182 742 213
1125 48 587 40 537 106 730 73 216 89 284 89 380 0 87 -19 134 -68 165 -38 25
-39 43 -7 123 14 34 25 75 25 92 0 58 -6 59 -446 70 -219 5 -529 10 -689 10
-486 0 -1021 19 -1170 41 -186 29 -281 33 -330 15z m705 -206 c69 -4 186 -16
260 -26 181 -23 602 -23 870 -1 308 27 445 20 538 -25 49 -23 82 -68 82 -111
0 -15 -9 -54 -20 -87 -34 -100 -110 -619 -300 -2030 -104 -776 -175 -1278
-181 -1284 -2 -3 -157 -6 -345 -7 l-340 -4 -122 63 c-142 73 -175 77 -293 36
-177 -60 -320 -78 -399 -50 -21 8 -46 29 -66 57 -54 77 -90 84 -249 44 -112
-28 -151 -31 -192 -13 -15 7 -89 15 -163 18 -108 4 -143 9 -174 25 -77 39
-102 107 -79 210 40 181 82 458 178 1160 101 744 147 1041 216 1391 68 348
107 504 134 540 30 39 132 92 201 104 50 9 225 6 444 -10z m-2126 -789 c17
-18 17 -21 0 -53 -32 -63 -54 -59 -54 11 0 65 19 80 54 42z m37 -319 c28 -25
30 -31 20 -50 -17 -33 -71 -70 -122 -83 -37 -10 -53 -9 -90 2 -56 18 -64 50
-23 99 35 41 76 59 136 60 38 0 54 -5 79 -28z m49 -185 c0 -17 -7 -64 -15
-102 -8 -39 -15 -102 -15 -141 0 -78 -24 -129 -68 -145 -29 -11 -84 35 -105
89 -53 132 -10 262 87 262 24 0 41 9 66 35 19 19 38 35 42 35 4 0 8 -15 8 -33z
m-181 -609 c16 -70 13 -219 -4 -347 -18 -127 -36 -185 -58 -189 -20 -4 -45 44
-53 102 -11 74 29 340 72 495 7 22 8 23 20 6 7 -9 18 -39 23 -67z m200 -193
c39 -35 97 -147 86 -165 -22 -36 -97 23 -148 118 -46 85 -11 112 62 47z m3614
-63 c15 -16 16 -24 7 -41 -6 -12 -17 -21 -24 -21 -16 0 -36 42 -36 76 0 20 3
23 18 15 9 -5 25 -18 35 -29z m-3515 -540 c5 -15 -43 -62 -62 -62 -9 0 -19 12
-22 27 -5 20 -2 30 15 44 23 19 61 14 69 -9z m-433 -105 c25 -39 39 -174 26
-248 -11 -66 -12 -67 -95 -130 -78 -58 -131 -28 -131 75 1 90 34 170 108 255
33 39 64 71 69 71 4 0 14 -10 23 -23z m4836 -421 c83 -18 139 -46 173 -86 44
-53 56 -48 -189 -74 -193 -21 -355 -21 -423 -1 -53 16 -126 70 -116 86 7 13
157 57 244 73 100 18 230 19 311 2z m-4636 -35 c43 -24 75 -77 75 -122 0 -29
-6 -43 -31 -63 -17 -14 -35 -26 -40 -26 -21 0 -58 50 -65 86 -4 22 -20 54 -35
72 -16 18 -29 39 -29 47 0 37 65 40 125 6z m-477 -14 c21 -43 0 -127 -53 -216
-56 -93 -60 -138 -16 -181 45 -45 121 -61 429 -90 134 -13 139 -14 147 -48 12
-57 21 -535 17 -895 l-4 -378 -27 -13 c-19 -9 -84 -13 -238 -14 -214 -1 -393
-18 -487 -46 -25 -8 -47 -11 -49 -8 -7 15 32 922 43 1017 12 104 39 236 64
317 14 46 14 49 -9 90 -48 83 -30 192 59 361 74 143 96 161 124 104z m218 -74
c28 -18 30 -30 7 -55 -23 -26 -49 -22 -72 11 -47 65 -7 92 65 44z m488 -42
c12 -22 12 -37 4 -69 -13 -52 -24 -53 -37 -4 -27 94 -3 144 33 73z m3698 -40
c13 -5 43 -27 69 -49 l45 -40 128 -11 c70 -6 300 -11 512 -11 362 0 385 -1
380 -17 -3 -10 -13 -92 -21 -183 -25 -256 -55 -365 -126 -470 -86 -126 -281
-192 -574 -193 -126 -1 -148 2 -221 26 -141 47 -242 127 -301 239 -27 51 -28
60 -31 221 -6 271 20 434 75 477 29 23 33 23 65 11z m-1542 -260 c0 -47 -252
-111 -436 -111 -97 0 -133 13 -121 44 14 35 73 48 191 42 85 -5 139 -2 231 13
66 10 123 20 128 20 4 1 7 -3 7 -8z m-1977 -290 c18 -40 21 -74 26 -246 3
-110 9 -205 14 -212 4 -6 -4 -33 -17 -60 -32 -63 -44 -117 -52 -239 -4 -54
-10 -106 -15 -114 -6 -11 -8 -8 -9 11 0 14 -13 91 -30 170 -37 180 -41 320
-10 371 26 44 25 74 -5 103 -31 31 -60 32 -80 1 -12 -18 -13 -29 -5 -51 6 -15
9 -30 6 -32 -9 -10 -68 29 -78 53 -16 35 1 61 93 144 47 42 86 88 99 115 12
25 26 42 32 39 6 -4 20 -27 31 -53z m3962 -606 c14 -13 25 -28 25 -33 0 -18
-69 -74 -86 -70 -42 7 -21 128 22 128 8 0 26 -11 39 -25z m-2422 -393 c26 -27
26 -29 10 -44 -47 -41 -96 -49 -113 -19 -14 28 -12 52 7 73 24 27 65 23 96
-10z m-870 -243 c46 -12 103 -60 111 -95 17 -65 -56 -185 -122 -204 -83 -23
-231 -7 -307 33 -97 50 -134 165 -69 216 74 59 258 82 387 50z m844 -4 c59
-17 113 -58 113 -85 0 -32 -55 -77 -111 -90 -122 -30 -346 36 -478 140 -28 22
-51 44 -51 48 0 14 472 2 527 -13z m362 -6 c18 -6 38 -24 46 -40 31 -59 18
-74 -80 -99 -88 -22 -98 -19 -122 38 -10 25 -11 37 -2 55 26 48 94 68 158 46z
m-2702 -84 c43 -12 75 -92 57 -140 -10 -26 -58 -44 -133 -51 -89 -9 -121 8
-121 61 0 63 103 152 160 140 8 -2 25 -6 37 -10z m228 -8 c34 -53 38 -82 14
-131 -24 -51 -45 -59 -59 -20 -20 53 -7 174 20 174 5 0 16 -10 25 -23z m1560
-61 c41 -18 43 -26 11 -63 -21 -24 -26 -26 -50 -15 -40 18 -49 92 -11 92 9 0
31 -7 50 -14z"/>
<path d="M6145 12310 c-44 -10 -109 -29 -145 -43 -36 -14 -85 -31 -109 -37
-80 -21 -203 -164 -218 -253 -4 -28 -2 -38 11 -43 31 -12 63 6 137 79 51 51
95 83 139 104 110 52 154 58 395 57 212 0 223 -1 285 -26 169 -66 297 -150
363 -236 53 -70 70 -127 65 -216 -6 -128 -94 -272 -228 -374 -43 -33 -162 -89
-235 -110 -158 -46 -281 -52 -480 -22 -210 31 -341 85 -438 182 -93 93 -118
196 -77 318 19 58 19 102 -2 143 -21 40 -61 6 -107 -92 -45 -96 -55 -157 -41
-255 24 -175 110 -269 310 -338 30 -10 141 -42 245 -70 183 -50 195 -52 320
-52 104 0 148 4 220 23 200 52 374 149 505 281 177 177 223 360 135 529 -122
231 -383 409 -679 461 -92 16 -279 11 -371 -10z"/>
<path d="M6781 11805 c-38 -32 -39 -43 -5 -55 39 -15 66 4 62 42 -4 41 -19 44
-57 13z"/>
<path d="M6177 11522 l-28 -29 21 -26 c12 -15 30 -27 40 -27 36 0 45 101 9
108 -8 1 -27 -10 -42 -26z"/>
<path d="M5593 10785 c-68 -21 -130 -63 -161 -108 -32 -48 -62 -118 -62 -147
0 -38 143 -123 291 -174 145 -49 211 -59 429 -62 113 -1 252 -8 310 -15 167
-20 306 -17 360 7 25 12 51 28 58 36 11 14 6 20 -33 42 -73 43 -58 67 75 116
47 17 95 36 108 42 34 18 24 49 -23 74 -33 18 -81 25 -283 43 -290 26 -384 41
-562 91 -74 21 -170 45 -212 54 -92 19 -237 20 -295 1z m452 -169 c120 -26
253 -58 295 -73 92 -31 211 -93 203 -106 -10 -16 -373 -1 -542 23 -344 47
-431 75 -431 136 0 24 18 38 75 61 50 20 168 8 400 -41z"/>
<path d="M5524 10276 c-75 -34 -87 -118 -23 -151 39 -21 285 -21 334 -1 45 19
45 45 1 84 -72 63 -242 100 -312 68z"/>
<path d="M6291 10155 c-46 -53 -39 -81 23 -95 75 -17 136 21 117 73 -26 68
-91 78 -140 22z"/>
<path d="M5741 9939 c-30 -33 -35 -62 -17 -98 22 -42 43 -39 55 7 14 50 14 75
-2 96 -13 18 -15 18 -36 -5z"/>
<path d="M6190 9872 c-8 -2 -29 -18 -47 -35 -29 -27 -31 -31 -17 -52 35 -53
82 -49 104 8 18 50 -3 91 -40 79z"/>
<path d="M4987 6909 c-30 -30 -30 -32 -12 -45 27 -20 47 -14 62 18 13 27 8 58
-9 58 -5 0 -24 -14 -41 -31z"/>
<path d="M8354 6065 c-19 -47 -18 -126 7 -280 11 -71 22 -176 24 -231 2 -64 9
-112 18 -130 l15 -28 21 34 c12 19 26 53 32 74 15 57 12 220 -6 312 -20 103
-76 284 -87 284 -5 0 -16 -16 -24 -35z"/>
<path d="M8380 3783 c0 -237 21 -925 29 -958 11 -44 35 -43 56 2 16 34 22 84
25 208 0 22 5 47 10 55 26 38 83 -101 100 -242 22 -188 68 -305 104 -268 12
12 13 25 5 64 -16 85 -38 330 -59 656 -27 413 -49 598 -74 619 -31 26 -55
-104 -57 -309 -1 -167 -11 -144 -29 70 -6 74 -15 152 -21 173 -12 45 -41 77
-69 77 -19 0 -20 -7 -20 -147z"/>
<path d="M5316 2599 c-27 -6 -113 -28 -190 -51 -141 -41 -141 -41 -302 -40
-90 1 -229 11 -320 22 -320 40 -482 36 -588 -17 -37 -18 -38 -18 -40 -84 -3
-109 -35 -159 -206 -329 -81 -80 -159 -161 -174 -181 -40 -55 -97 -193 -176
-430 -139 -414 -224 -546 -432 -675 -134 -82 -185 -68 -240 69 -33 83 -71 127
-111 127 -61 0 -139 -75 -178 -170 -17 -42 -18 -159 -1 -216 41 -141 180 -236
322 -220 l57 7 18 -41 c21 -47 49 -70 83 -70 13 0 71 25 128 55 65 34 118 55
138 55 18 0 113 -9 212 -20 294 -32 574 -43 774 -31 191 12 389 33 515 56 109
20 168 19 187 -2 9 -10 18 -45 21 -78 13 -146 115 -264 262 -304 22 -6 144
-13 270 -15 127 -3 300 -8 385 -12 209 -9 297 9 366 73 34 31 29 35 -83 64
-68 18 -121 22 -398 29 -176 4 -327 10 -336 14 -12 5 -19 26 -24 69 -3 33 -27
131 -52 217 -92 317 -103 423 -58 585 29 109 61 284 75 420 14 141 40 571 41
685 1 52 5 103 10 112 16 29 80 39 231 35 119 -3 153 -8 201 -26 133 -52 262
-194 307 -338 12 -37 32 -160 46 -273 68 -573 144 -832 318 -1094 170 -255
354 -300 909 -220 l42 6 -37 -37 c-77 -75 -81 -74 447 -104 196 -11 334 8 421
57 17 10 15 12 -17 26 -63 26 -158 36 -358 36 -107 0 -192 3 -189 6 3 3 41 11
84 19 44 7 108 21 144 30 59 16 82 17 240 7 184 -12 236 -8 290 24 33 19 78
70 69 78 -2 2 -64 9 -136 15 -131 11 -284 6 -603 -19 -190 -16 -246 -13 -269
11 -10 11 -29 59 -40 106 -12 47 -28 98 -37 114 -16 31 -56 58 -61 42 -2 -6
-14 -30 -26 -54 -31 -63 -62 -64 -181 -6 -50 25 -116 50 -147 56 -134 28 -212
127 -243 311 -10 60 -36 391 -36 461 0 130 -52 273 -144 396 -84 111 -225 223
-282 223 -43 0 -143 52 -204 107 -138 124 -79 167 100 72 497 -262 889 -351
1250 -283 109 20 187 48 352 125 80 37 176 77 213 88 77 24 171 27 218 7 39
-17 88 -68 114 -120 l20 -38 31 38 c56 67 55 129 -3 192 -66 74 -188 117 -312
110 -80 -5 -121 -19 -181 -63 -45 -32 -224 -102 -338 -131 -214 -54 -453 -68
-647 -39 -193 29 -331 76 -497 170 -135 76 -232 116 -367 149 -118 29 -147 33
-333 47 -225 17 -261 18 -314 8z m-536 -371 c40 -27 80 -103 79 -149 -4 -178
-4 -171 34 -266 48 -119 48 -152 3 -190 -30 -24 -36 -39 -50 -107 -22 -104
-36 -286 -36 -471 0 -82 -5 -225 -11 -317 l-12 -168 -306 0 c-308 0 -1282 20
-1290 26 -2 2 61 70 140 151 215 220 276 308 360 513 123 304 257 513 434 678
131 122 363 275 468 308 69 21 149 18 187 -8z m1741 -475 c15 -37 15 -174 0
-201 -30 -55 -74 7 -74 103 0 99 49 163 74 98z m-3126 -750 c-11 -46 -56 -103
-125 -158 -122 -97 -203 -145 -215 -126 -9 15 82 127 158 194 88 79 143 117
169 117 17 0 19 -5 13 -27z m-718 -339 c26 -26 26 -27 7 -41 -80 -58 -171 -26
-110 40 32 35 69 35 103 1z"/>
<path d="M3115 1511 l-30 -7 28 -18 c23 -15 32 -17 52 -8 24 11 34 32 16 32
-5 0 -15 2 -23 4 -7 2 -26 1 -43 -3z"/>
</g>
</svg>
