<?xml version="1.0" standalone="no"?>
<!DOCTYPE svg PUBLIC "-//W3C//DTD SVG 20010904//EN"
 "http://www.w3.org/TR/2001/REC-SVG-20010904/DTD/svg10.dtd">
<svg version="1.0" xmlns="http://www.w3.org/2000/svg"
 width="1280.000000pt" height="1204.000000pt" viewBox="0 0 1280.000000 1204.000000"
 preserveAspectRatio="xMidYMid meet">
<metadata>
Created by potrace 1.15, written by Peter Selinger 2001-2017
</metadata>
<g transform="translate(0.000000,1204.000000) scale(0.100000,-0.100000)"
fill="#ffffff" stroke="none">
<path d="M7613 12022 c10 -11 65 -56 122 -99 95 -71 128 -104 91 -90 -39 15
-399 97 -404 92 -3 -3 14 -25 38 -50 24 -25 42 -46 39 -49 -2 -2 -49 10 -104
25 -214 62 -275 77 -275 68 0 -12 81 -51 178 -84 53 -18 78 -31 69 -36 -7 -4
-64 -19 -125 -33 -140 -32 -240 -73 -343 -141 -84 -56 -91 -59 -243 -71 -76
-6 -172 -31 -228 -60 -15 -8 -70 -29 -123 -48 -112 -40 -222 -102 -259 -147
-23 -27 -35 -32 -99 -40 -65 -8 -75 -12 -100 -43 -16 -20 -58 -58 -93 -86 -48
-38 -72 -65 -90 -103 l-24 -52 -100 4 -100 3 -7 -33 -6 -32 -19 23 c-16 20
-21 21 -48 10 -52 -22 -54 -30 -40 -141 l12 -101 -48 -49 c-41 -42 -61 -53
-132 -75 -107 -32 -162 -79 -193 -165 -12 -33 -25 -59 -30 -59 -4 0 -17 16
-30 36 -15 25 -39 44 -77 61 -59 27 -152 37 -159 16 -2 -6 43 -61 101 -122
109 -114 143 -157 132 -168 -3 -3 -55 45 -116 107 -60 63 -112 111 -115 108
-13 -13 45 -116 89 -156 25 -24 44 -48 41 -53 -4 -5 -21 -9 -38 -9 -64 0 -63
-14 2 -67 34 -27 89 -82 123 -123 60 -70 63 -75 70 -144 12 -120 9 -270 -7
-355 -12 -63 -13 -90 -5 -122 12 -45 11 -58 -26 -254 -29 -157 -30 -229 -4
-320 11 -39 24 -117 30 -175 8 -82 18 -125 47 -197 l37 -93 -13 -207 c-6 -115
-13 -291 -14 -393 -2 -163 1 -195 20 -270 12 -47 25 -97 28 -112 7 -35 17 -35
57 1 32 29 33 31 32 108 0 43 -4 157 -8 253 -12 241 11 469 65 653 11 38 23
100 26 139 6 65 11 78 61 152 31 45 77 106 104 137 26 31 48 64 48 73 0 9 -18
52 -40 95 -58 114 -70 226 -46 423 10 79 22 188 26 243 10 118 17 127 113 144
101 17 139 14 178 -15 56 -42 84 -54 179 -73 l90 -18 117 29 c65 16 185 38
268 48 169 22 187 27 305 80 47 22 135 53 195 70 124 36 126 37 214 114 70 61
130 88 250 113 91 19 147 13 261 -25 148 -50 181 -76 210 -164 l17 -53 99 1
c70 1 138 11 234 33 184 42 191 44 280 95 44 26 83 46 88 46 5 0 29 -16 54
-34 48 -37 56 -53 140 -276 41 -110 63 -142 133 -185 28 -18 54 -48 78 -89 59
-102 147 -275 147 -289 0 -7 -30 -32 -67 -56 -38 -24 -97 -62 -133 -85 -75
-47 -120 -102 -149 -181 -18 -47 -21 -78 -21 -199 0 -78 5 -179 11 -224 l11
-81 -51 -130 c-28 -71 -51 -133 -51 -137 0 -5 27 -40 60 -79 33 -38 71 -92 84
-120 59 -123 74 -279 44 -430 -9 -44 -19 -101 -22 -127 -5 -45 -4 -48 18 -48
18 0 57 36 155 144 175 192 229 241 283 254 24 6 53 22 64 34 12 13 56 85 99
162 90 159 78 157 150 16 74 -146 88 -226 64 -354 -6 -32 -8 -60 -5 -63 12
-12 60 32 108 98 l50 69 69 0 c38 0 69 2 69 5 0 3 -24 38 -53 78 -82 110 -107
159 -107 204 0 36 7 47 101 144 56 57 110 121 120 142 11 20 27 90 36 153 10
69 23 124 32 135 11 14 36 22 84 27 51 6 74 15 95 34 15 13 51 42 81 63 29 21
67 58 85 82 l32 44 -8 102 c-4 56 -15 143 -24 194 -8 51 -13 96 -10 101 3 5
19 12 36 15 16 4 30 10 30 14 -2 27 -169 127 -255 152 -22 7 -46 14 -53 17 -9
2 -2 19 22 53 18 28 39 74 46 103 l13 52 -59 54 c-62 57 -260 209 -331 254
-110 72 -31 147 193 184 81 13 139 14 314 9 l216 -7 27 36 c18 23 53 48 104
71 43 21 72 40 67 45 -5 5 -52 25 -104 44 -138 50 -152 57 -139 72 6 7 33 27
61 45 36 23 46 34 36 40 -7 4 -61 19 -118 34 -58 14 -122 31 -144 36 l-38 10
98 45 c55 25 105 48 112 51 6 3 12 9 12 13 0 15 -148 70 -252 94 -170 40 -225
45 -413 45 -264 -2 -265 -2 -356 90 -67 68 -79 87 -116 176 -70 170 -75 192
-68 270 10 105 24 140 78 203 138 156 287 368 287 405 0 17 -5 18 -37 12 -64
-12 -91 -33 -274 -211 -98 -96 -180 -174 -183 -174 -2 0 2 17 11 38 16 43 56
94 162 213 41 46 69 85 63 87 -6 2 -89 -33 -183 -77 -95 -45 -174 -80 -176
-78 -1 2 42 52 96 110 117 125 146 163 131 172 -12 7 -127 -35 -277 -102 -121
-54 -117 -47 -128 -238 -8 -144 -42 -432 -54 -452 -10 -19 -13 -4 -37 179 -9
75 -20 135 -24 133 -4 -2 -15 -41 -25 -86 -15 -66 -20 -77 -26 -58 -9 30 -36
313 -45 472 -5 78 -10 117 -18 114 -6 -2 -20 -48 -31 -102 -24 -115 -35 -108
-35 25 0 129 -12 148 -51 83 -12 -21 -51 -77 -86 -125 -35 -47 -71 -107 -79
-132 -9 -25 -19 -46 -22 -46 -4 0 -34 36 -67 80 -33 44 -61 76 -63 70 -2 -6
28 -68 67 -139 39 -71 71 -132 71 -135 0 -4 -23 21 -52 56 -99 121 -354 367
-400 387 -48 20 -199 75 -238 86 -25 8 -25 7 -7 -13z"/>
<path d="M6692 8917 c-7 -8 -35 -74 -62 -147 -28 -73 -83 -195 -122 -271 -58
-113 -72 -148 -72 -186 -1 -27 -7 -54 -13 -61 -7 -7 -13 -24 -13 -38 0 -17 7
-26 28 -31 33 -9 159 -9 168 -1 3 4 -3 20 -15 36 -12 17 -21 45 -21 64 0 39
46 214 90 342 18 52 35 129 41 187 12 108 10 129 -9 106z"/>
<path d="M5529 8780 c-27 -11 -54 -57 -64 -111 -6 -33 -4 -35 54 -71 l61 -38
129 0 130 0 123 -54 c68 -30 140 -58 160 -61 39 -7 80 -32 170 -102 29 -23 66
-45 82 -49 26 -6 27 -5 17 13 -17 34 -241 242 -315 294 -178 126 -453 215
-547 179z"/>
<path d="M6852 8675 c-31 -110 -44 -184 -39 -237 6 -66 41 -148 86 -198 l31
-35 -6 45 c-3 25 -14 106 -25 180 -10 74 -23 169 -27 210 l-8 75 -12 -40z"/>
<path d="M7505 8539 c-91 -26 -332 -132 -369 -162 -16 -13 -26 -28 -23 -34 4
-6 155 -13 408 -17 l401 -8 81 -34 c45 -19 124 -58 176 -85 51 -28 95 -48 98
-46 2 3 -28 51 -68 107 -71 100 -76 105 -203 188 -71 46 -143 89 -160 94 -17
5 -85 11 -151 14 -100 3 -131 1 -190 -17z"/>
<path d="M6076 8393 c-3 -4 -6 -22 -6 -40 0 -28 -3 -33 -17 -29 -74 22 -204
40 -285 41 l-97 0 -68 -72 c-53 -56 -76 -73 -105 -78 -44 -8 -49 -22 -12 -31
21 -5 33 1 67 34 43 41 105 74 167 87 31 6 33 5 17 -7 -10 -7 -21 -32 -24 -53
-6 -48 16 -74 75 -86 26 -6 10 -7 -53 -5 -58 2 -103 -1 -125 -9 -33 -13 -29
-14 65 -14 55 -1 125 -8 155 -16 30 -8 109 -20 175 -25 121 -11 280 -40 258
-47 -6 -2 -47 -10 -90 -16 l-78 -12 63 -24 c34 -13 62 -29 62 -35 0 -18 -160
-171 -214 -205 -76 -47 -36 -37 73 19 54 28 100 50 104 50 3 0 18 -16 33 -35
43 -57 46 -100 13 -222 -36 -135 -77 -223 -137 -291 -71 -80 -82 -102 -82
-154 0 -26 4 -49 8 -52 4 -2 23 25 41 60 20 39 50 78 74 97 96 77 97 78 97
191 0 55 6 124 14 151 21 77 121 345 149 401 14 28 29 78 33 112 6 56 4 66
-19 100 -21 33 -34 41 -91 56 -48 13 -72 26 -84 44 -40 59 -139 132 -156 115z
m-76 -89 c74 -11 152 -56 178 -102 l22 -40 -49 -16 c-55 -18 -90 -19 -204 -10
l-76 7 23 31 c37 48 40 72 17 105 -28 39 -27 44 12 37 17 -3 52 -8 77 -12z"/>
<path d="M7148 8133 c-35 -14 -38 -19 -39 -57 -1 -22 -3 -59 -4 -81 -3 -43 7
-55 45 -55 13 0 38 -13 55 -29 23 -23 54 -36 134 -57 103 -26 105 -26 230 -14
195 20 192 26 -19 33 -246 8 -310 23 -346 82 -29 48 -34 129 -8 139 23 9 28 7
16 -6 -11 -14 -2 -81 14 -111 19 -33 77 -67 115 -67 58 0 66 7 84 75 20 71 16
91 -17 105 -17 8 -9 9 32 4 74 -7 235 -85 325 -158 39 -31 75 -54 80 -53 28 9
-2 40 -135 137 l-145 106 -150 12 c-184 15 -220 14 -267 -5z"/>
<path d="M7590 8143 c1 -23 56 -66 157 -123 98 -55 118 -72 153 -121 24 -34
58 -68 86 -84 46 -27 47 -27 82 -11 l35 17 -128 129 c-127 127 -130 129 -214
159 -92 32 -171 48 -171 34z"/>
<path d="M6925 8006 c-23 -6 -41 -19 -43 -28 -3 -16 57 -148 80 -175 16 -20
168 -74 189 -68 34 11 20 32 -58 86 -108 74 -113 80 -106 126 3 21 10 46 15
56 7 14 4 17 -14 16 -13 0 -41 -6 -63 -13z"/>
<path d="M9428 7903 c-30 -12 -40 -23 -48 -51 -5 -21 -10 -44 -10 -53 0 -19
-50 -99 -75 -119 -38 -31 -95 -113 -95 -136 0 -29 1 -29 49 -4 58 29 124 110
175 213 45 90 68 168 50 166 -5 0 -26 -7 -46 -16z"/>
<path d="M9466 7728 c-9 -12 -16 -26 -16 -30 0 -4 -9 -32 -20 -62 -14 -36 -27
-56 -41 -59 -17 -5 -20 -11 -15 -34 3 -15 10 -102 17 -193 6 -91 16 -169 21
-175 5 -6 19 1 36 18 26 27 27 30 27 145 1 104 4 125 29 192 21 55 29 94 30
145 1 69 0 70 -26 73 -18 2 -31 -4 -42 -20z"/>
<path d="M9060 7398 c0 -30 -17 -48 -45 -48 -12 0 -30 -6 -40 -14 -17 -12 -19
-28 -19 -147 -1 -144 -9 -171 -72 -256 -35 -47 -32 -63 14 -63 29 0 45 7 67
30 34 36 73 48 180 56 44 3 92 10 106 15 38 15 119 162 119 217 0 39 -3 43
-62 83 -35 23 -92 63 -128 90 -36 26 -78 51 -93 54 -24 6 -27 4 -27 -17z"/>
<path d="M5028 7239 c-59 -60 -59 -61 -52 -107 7 -55 83 -198 126 -239 l30
-28 19 24 c27 33 24 65 -13 130 -32 55 -32 58 -30 168 2 79 -1 113 -9 113 -6
0 -38 -27 -71 -61z"/>
<path d="M6901 7213 c50 -175 72 -314 51 -327 -7 -4 -5 -25 5 -64 8 -31 16
-58 18 -60 1 -2 13 14 26 35 15 25 25 60 29 103 l5 65 71 -85 c83 -101 109
-138 200 -290 38 -63 70 -108 72 -99 2 9 -6 60 -17 114 -24 116 -69 212 -179
375 -61 92 -98 134 -181 208 -57 50 -108 92 -112 92 -4 0 1 -30 12 -67z"/>
<path d="M8785 7273 c-45 -10 -45 -11 -20 -65 14 -29 25 -61 25 -70 0 -35 -34
-116 -82 -195 -72 -119 -103 -279 -70 -363 33 -83 55 -31 28 64 -13 44 -14 65
-5 108 19 97 42 153 77 192 60 67 86 138 90 244 4 97 5 96 -43 85z"/>
<path d="M6056 7011 l-30 -31 13 -67 c7 -38 17 -85 23 -105 11 -36 13 -38 55
-38 30 0 65 -11 113 -35 38 -19 72 -35 75 -35 14 0 1 22 -44 73 -37 42 -55 75
-72 128 -26 84 -57 133 -85 137 -11 2 -31 -10 -48 -27z"/>
<path d="M9093 6869 c3 -13 11 -62 17 -109 6 -47 13 -86 14 -88 2 -1 11 9 20
22 9 14 46 60 82 101 37 42 65 78 63 80 -2 2 -49 7 -103 11 l-99 7 6 -24z"/>
<path d="M6645 6853 c-69 -8 -95 -14 -95 -23 0 -17 48 -41 96 -48 43 -6 49
-10 56 -40 7 -26 13 -32 36 -32 31 0 140 25 149 34 8 8 -14 33 -70 78 -50 39
-73 43 -172 31z"/>
<path d="M5212 6759 l-32 -95 20 -115 c12 -62 25 -190 29 -284 8 -170 8 -170
46 -244 46 -92 150 -326 216 -487 43 -105 65 -142 165 -275 133 -177 175 -224
260 -284 82 -60 233 -131 326 -154 171 -44 579 -47 736 -7 146 38 337 121 525
228 143 82 387 206 527 268 67 29 95 52 234 185 l159 151 -73 -4 -74 -4 31 39
c36 45 69 110 61 119 -4 3 -48 -22 -99 -57 -51 -34 -161 -95 -245 -135 -84
-40 -222 -111 -306 -157 -101 -56 -168 -87 -198 -91 l-45 -6 25 17 c57 41 60
48 60 141 0 48 3 124 7 170 l6 83 -46 44 -47 45 -1 132 0 133 -82 120 -82 120
-85 -1 c-47 0 -112 -3 -146 -7 l-60 -6 -117 85 -116 86 -146 25 -146 24 -43
-20 -42 -21 -63 25 -63 26 -82 -20 c-169 -41 -258 -53 -371 -49 l-111 3 -55
-48 c-55 -47 -57 -51 -74 -130 -21 -98 -16 -178 19 -277 l24 -69 -67 -37 c-36
-21 -86 -52 -110 -71 -24 -18 -47 -33 -50 -33 -4 0 -24 129 -45 288 -41 306
-75 518 -104 647 l-18 80 -32 -96z m1131 -478 c71 -48 107 -52 207 -21 36 11
78 20 93 20 15 0 96 -25 180 -55 94 -35 197 -64 271 -78 l118 -22 24 -54 c28
-63 28 -61 10 -61 -7 0 -19 -6 -25 -14 -9 -11 -5 -19 17 -37 16 -13 37 -28 46
-34 20 -12 46 -116 49 -193 2 -64 -10 -77 -86 -87 -101 -14 -181 -75 -261
-199 -64 -99 -127 -156 -170 -156 -45 1 -189 34 -279 65 l-78 27 -70 -22 c-74
-23 -184 -44 -281 -53 l-57 -5 -34 41 c-62 77 -86 124 -140 284 -30 87 -67
190 -82 228 -29 77 -31 105 -20 271 l8 112 111 37 c138 47 188 55 300 50 84
-4 91 -6 149 -44z"/>
<path d="M5996 6185 l-109 -10 46 -33 45 -32 69 15 68 14 135 -46 c132 -44
137 -45 220 -38 126 11 154 11 280 -3 67 -8 146 -24 190 -39 57 -20 85 -24
114 -19 21 4 35 10 32 13 -14 14 -155 53 -211 59 -33 3 -97 12 -142 20 -74 14
-91 13 -174 -2 -106 -19 -142 -16 -229 21 -36 15 -101 41 -145 59 l-80 31
-109 -10z"/>
<path d="M6345 5840 c-91 -21 -140 -38 -138 -47 4 -23 146 -223 186 -262 l45
-43 91 47 c99 51 135 85 151 143 23 82 5 126 -62 151 -39 15 -225 22 -273 11z"/>
<path d="M8650 6455 c0 -1 8 -26 19 -56 l18 -54 -38 -190 c-51 -254 -51 -254
12 -185 28 30 69 86 91 123 25 41 57 79 82 97 59 40 92 78 114 130 l19 45
-111 22 c-61 13 -132 33 -158 46 -27 13 -48 23 -48 22z"/>
<path d="M8590 5838 c-6 -29 -20 -145 -31 -257 -27 -284 -19 -285 61 -4 50
172 52 186 41 225 -14 45 -39 88 -51 88 -5 0 -13 -24 -20 -52z"/>
<path d="M5359 5522 c-13 -8 -109 -108 -214 -222 -154 -168 -201 -214 -250
-240 -33 -18 -71 -41 -85 -51 -15 -10 -89 -29 -170 -45 -80 -15 -165 -37 -190
-49 -25 -12 -83 -37 -130 -55 -47 -19 -102 -46 -123 -61 -20 -15 -79 -43 -130
-63 -50 -20 -128 -56 -172 -82 -44 -25 -152 -80 -240 -121 -88 -41 -172 -87
-187 -103 -22 -21 -52 -34 -135 -54 -143 -36 -307 -106 -385 -165 -35 -26
-103 -71 -153 -101 -49 -29 -109 -66 -133 -82 l-42 -29 -117 6 c-64 3 -120 8
-125 11 -5 3 -55 -21 -111 -54 -100 -58 -104 -60 -212 -71 -149 -17 -180 -24
-298 -77 -56 -25 -182 -75 -280 -110 -174 -62 -181 -66 -249 -128 -64 -58 -75
-74 -110 -158 -21 -51 -43 -111 -49 -133 -6 -22 -26 -66 -46 -98 -33 -54 -93
-206 -93 -234 0 -7 -28 -77 -61 -155 -61 -142 -62 -144 -65 -250 -2 -83 0
-109 12 -119 25 -21 10 -141 -20 -152 -7 -3 -23 -33 -35 -66 -12 -34 -45 -91
-72 -127 -65 -85 -93 -161 -83 -229 4 -27 8 -84 8 -125 1 -75 0 -76 -41 -125
-23 -28 -53 -76 -67 -107 -14 -32 -39 -76 -56 -99 l-30 -42 7 -146 6 -146 -33
-58 c-22 -39 -30 -65 -26 -81 10 -39 -12 -126 -43 -175 -19 -29 -36 -76 -46
-126 -9 -44 -25 -107 -35 -140 -10 -33 -24 -79 -30 -102 -7 -30 -19 -47 -38
-57 -27 -14 -93 -116 -148 -229 -25 -49 -26 -59 -14 -67 8 -5 20 -10 25 -10 6
0 37 50 70 111 60 111 66 119 117 161 29 24 57 106 99 288 11 47 35 117 55
156 28 56 37 88 43 152 5 56 12 87 25 101 28 30 41 152 28 253 -10 76 -9 86 9
113 10 17 35 62 53 100 19 39 53 91 74 117 61 73 77 177 41 270 -16 40 12 125
66 195 24 33 57 87 73 120 15 33 33 58 39 56 12 -4 53 137 53 183 0 16 -7 39
-15 51 -12 16 -14 44 -12 115 3 86 7 101 54 208 27 63 65 162 82 219 18 57 50
131 70 165 21 34 42 75 46 91 3 17 25 76 48 133 33 85 48 108 82 137 l42 34
11 -54 c6 -31 27 -80 48 -112 41 -65 49 -102 63 -313 20 -287 38 -404 87 -546
64 -188 82 -284 99 -529 14 -204 17 -219 39 -246 44 -52 77 -169 106 -379 31
-225 70 -596 70 -666 0 -98 13 -174 47 -278 24 -73 25 -88 19 -188 -3 -60 -9
-136 -13 -169 -6 -60 -6 -61 18 -57 34 4 72 84 73 152 1 28 -5 125 -12 216 -7
91 -17 228 -22 305 -6 78 -26 228 -45 335 -19 107 -41 257 -50 333 -23 210
-47 302 -95 364 -21 27 -25 49 -50 309 -22 228 -27 258 -76 404 l-36 105 4
222 3 221 -33 44 c-18 23 -37 52 -42 63 -5 11 -23 115 -40 230 -17 116 -35
214 -40 219 -5 5 -32 17 -61 26 -64 22 -66 20 144 94 85 30 207 78 271 106
108 48 130 54 268 72 l151 20 91 55 c85 52 93 55 136 48 25 -4 86 -7 135 -5
86 1 93 3 150 40 33 21 96 59 140 86 44 26 109 69 145 95 78 57 221 117 350
149 103 25 139 39 161 66 8 9 92 55 187 100 96 46 200 100 232 119 31 19 105
55 164 79 59 24 125 56 147 70 21 14 71 39 111 55 40 16 98 40 128 54 30 14
111 34 180 46 133 23 187 37 192 50 2 4 31 23 66 41 50 27 92 64 200 179 226
243 243 261 247 261 2 0 -28 -68 -66 -151 -70 -150 -164 -423 -199 -574 -24
-103 -30 -276 -38 -974 -9 -899 -13 -807 46 -1216 28 -198 61 -434 72 -525 28
-226 152 -1895 145 -1948 l-6 -43 1088 7 c598 3 1239 9 1423 13 l334 6 161
515 c89 283 172 547 184 585 22 70 34 141 221 1320 56 352 105 663 110 690 14
87 -35 1059 -71 1405 -30 290 -34 310 -71 414 -21 60 -37 110 -36 112 2 1 43
-51 92 -117 49 -65 108 -136 131 -157 l41 -39 155 -6 c149 -5 159 -7 241 -40
46 -20 109 -50 139 -68 30 -17 135 -77 234 -132 195 -108 212 -119 358 -245
138 -119 391 -285 472 -311 105 -34 399 -157 565 -236 85 -41 186 -84 224 -97
39 -12 108 -46 155 -75 142 -88 493 -260 670 -329 231 -90 247 -109 291 -324
8 -36 22 -76 32 -90 11 -16 22 -56 28 -106 5 -45 16 -121 25 -170 14 -74 15
-102 6 -176 l-11 -88 30 -57 c16 -32 40 -70 51 -85 31 -38 28 -91 -9 -175 -54
-122 -55 -120 24 -234 69 -100 81 -119 105 -172 13 -27 11 -30 -26 -63 -22
-19 -59 -48 -81 -64 -59 -42 -78 -108 -54 -184 61 -195 71 -218 129 -304 52
-78 61 -99 68 -154 8 -59 10 -63 36 -66 23 -3 27 0 27 21 0 71 -22 135 -74
212 -29 44 -61 94 -69 111 -26 52 -75 240 -70 268 4 17 21 38 47 56 22 16 62
49 89 73 50 48 58 76 32 111 -8 11 -15 26 -15 33 0 8 -32 58 -70 111 -39 53
-73 107 -76 118 -3 13 6 49 21 85 15 35 32 80 37 99 16 52 2 125 -30 163 -52
61 -61 93 -55 209 4 76 1 128 -11 189 -9 46 -20 119 -25 163 -6 50 -16 88 -28
105 -11 14 -27 64 -37 111 -41 196 -75 231 -316 325 -195 76 -511 230 -620
301 -92 60 -148 88 -219 109 -30 9 -116 46 -190 82 -150 72 -381 170 -536 227
-55 21 -120 49 -145 63 -94 54 -270 181 -394 285 -89 75 -168 131 -255 179
-69 39 -184 104 -256 144 -71 41 -168 89 -215 108 -80 32 -94 35 -235 41
l-150 6 -50 54 c-27 30 -111 137 -185 239 -83 115 -142 186 -152 186 -12 1
-27 -20 -49 -66 l-31 -68 10 -163 c11 -177 10 -183 -43 -362 -20 -71 -43 -188
-59 -305 -30 -217 -28 -208 -108 -415 -109 -284 -126 -324 -192 -468 -52 -114
-84 -169 -161 -273 l-97 -129 -28 -118 c-16 -65 -45 -159 -64 -208 -40 -100
-96 -300 -135 -479 l-26 -119 -54 -38 -54 -38 -116 0 c-64 0 -153 -3 -198 -7
l-83 -6 0 -68 c0 -60 -5 -76 -42 -146 -23 -43 -54 -121 -69 -173 -14 -52 -51
-178 -82 -280 -30 -102 -72 -262 -93 -357 l-38 -172 -56 207 c-50 182 -118
372 -206 569 -15 35 -67 103 -146 192 -87 98 -138 166 -173 230 -68 124 -101
180 -130 220 -30 41 -31 71 -10 232 11 86 13 129 5 169 -11 57 -17 69 -87 164
-97 132 -113 171 -139 349 -30 206 -37 234 -76 297 -27 43 -32 64 -39 143 -10
131 -46 272 -203 792 -25 83 -56 189 -68 237 l-22 87 32 208 c38 240 37 221
16 424 -18 172 -27 192 -75 161z m57 -367 c-2 -66 -16 -187 -29 -269 -30 -180
-34 -158 92 -580 151 -507 169 -578 180 -712 7 -78 13 -100 39 -141 34 -53 52
-129 77 -316 17 -135 32 -169 136 -322 37 -55 72 -113 78 -128 15 -39 14 -107
-5 -238 -8 -61 -12 -124 -9 -140 4 -16 24 -55 44 -87 21 -31 66 -109 102 -172
49 -88 93 -148 189 -258 l125 -143 78 -187 c57 -138 96 -252 146 -435 38 -136
72 -251 75 -255 11 -11 23 17 30 68 12 87 94 424 140 571 25 80 57 188 70 239
15 53 41 119 62 154 28 47 39 79 48 139 l10 77 101 2 c55 1 132 1 171 -1 83
-3 121 11 184 68 39 34 42 42 64 146 34 161 101 400 136 485 26 63 54 161 84
291 3 15 52 90 109 166 57 77 109 155 117 174 7 19 38 88 68 154 30 66 78 183
107 260 29 77 71 187 94 245 34 90 44 137 70 320 22 150 42 250 67 330 43 139
48 186 36 360 -8 121 -7 139 9 178 11 24 23 41 29 37 21 -13 60 -97 110 -235
51 -143 52 -149 81 -410 32 -286 84 -1260 76 -1400 -3 -41 -33 -246 -66 -455
-34 -209 -102 -634 -151 -946 l-90 -565 -109 -350 c-60 -192 -143 -455 -183
-584 l-74 -235 -342 -3 c-188 -1 -342 0 -342 2 0 3 7 38 16 78 8 40 51 249 95
463 44 215 96 468 115 564 22 107 70 280 124 452 92 293 90 288 192 397 l50
53 46 -38 c26 -21 82 -73 124 -115 43 -42 78 -73 78 -70 0 10 -116 433 -146
532 -37 121 -132 381 -150 407 -11 18 -24 23 -61 23 -41 0 -50 -4 -82 -39 -71
-76 -80 -108 -91 -309 l-11 -180 35 -139 c19 -76 39 -165 45 -199 l11 -61
-109 -359 c-61 -197 -119 -388 -131 -424 -12 -36 -63 -282 -114 -548 -52 -265
-96 -485 -98 -488 -3 -2 -308 -7 -679 -9 -371 -3 -830 -7 -1020 -10 l-346 -5
-1 63 c-1 34 -24 366 -52 737 -27 371 -54 740 -60 820 -14 195 -64 588 -154
1220 -11 75 -12 150 -4 355 5 143 9 433 9 645 0 519 14 778 46 890 59 208 120
377 191 535 l77 169 13 -94 c8 -57 11 -143 8 -215z"/>
<path d="M5613 2928 c-25 -24 -70 -81 -100 -127 -30 -46 -98 -145 -151 -220
-53 -75 -113 -169 -135 -210 -33 -64 -38 -81 -33 -120 3 -25 11 -94 17 -153
18 -166 27 -152 59 101 11 91 25 182 30 201 7 28 36 58 137 145 186 161 164
148 209 129 22 -9 49 -26 62 -37 39 -36 92 -132 92 -166 0 -17 4 -31 9 -31 28
0 12 286 -20 359 -30 68 -99 171 -115 171 -8 0 -35 -19 -61 -42z"/>
<path d="M5765 2095 c-41 -42 -75 -84 -75 -92 0 -9 9 -46 20 -82 22 -75 41
-97 145 -168 48 -33 82 -66 109 -107 28 -42 57 -69 99 -95 32 -20 112 -71 178
-113 l119 -77 29 17 c39 22 78 8 108 -38 43 -67 57 -84 60 -73 11 32 -151 279
-232 355 -34 33 -195 113 -367 184 l-118 48 -30 72 c-16 40 -30 79 -30 87 0 8
16 44 36 81 19 37 33 70 30 73 -3 3 -39 -29 -81 -72z"/>
<path d="M7210 1315 c-48 -111 -78 -217 -90 -313 -7 -56 -10 -105 -7 -108 11
-12 77 46 96 84 30 59 114 310 108 324 -2 7 -23 23 -46 36 l-41 23 -20 -46z"/>
<path d="M6361 1324 c-28 -14 -67 -44 -87 -67 -35 -40 -36 -44 -31 -104 7 -87
32 -125 114 -165 48 -23 69 -29 81 -22 29 17 95 164 100 222 5 53 4 54 -44 99
-71 65 -74 66 -133 37z"/>
<path d="M6763 779 c-16 -19 -70 -203 -137 -461 -60 -232 -64 -256 -41 -264
43 -17 62 42 140 429 56 276 62 325 38 296z"/>
<path d="M9150 4722 c0 -16 233 -428 295 -522 55 -83 84 -113 221 -232 253
-217 282 -251 404 -477 96 -176 167 -281 191 -281 44 0 -113 621 -211 835 -50
110 -110 172 -360 375 -116 94 -140 109 -321 204 -162 85 -219 110 -219 98z"/>
<path d="M9212 4500 c114 -200 226 -405 249 -455 23 -52 123 -357 244 -748 21
-69 86 -223 156 -373 65 -141 119 -259 119 -263 0 -3 -44 -88 -98 -187 -92
-172 -101 -185 -177 -254 -95 -86 -175 -176 -175 -195 0 -19 143 -207 326
-430 146 -177 148 -181 155 -240 4 -33 6 -61 5 -63 -2 -1 -115 40 -252 92
-249 95 -249 95 -265 74 -25 -33 -149 -268 -219 -416 l-63 -134 22 -77 c23
-87 28 -250 11 -376 -6 -38 -13 -93 -16 -121 l-7 -51 44 -16 c24 -9 89 -21
144 -27 140 -14 910 -70 966 -70 l47 0 56 168 c30 93 83 231 117 308 l61 139
-2 130 c-1 72 -4 145 -8 164 l-7 34 -183 43 c-100 23 -213 51 -251 63 l-68 21
-38 107 c-62 176 -74 198 -249 436 -93 125 -166 233 -163 241 3 7 90 129 194
272 104 142 192 264 196 271 19 31 -34 201 -193 613 -265 687 -260 676 -377
857 -60 91 -153 239 -208 328 -94 154 -149 234 -93 135z"/>
<path d="M4300 3993 c-161 -263 -360 -585 -443 -717 -82 -131 -151 -246 -154
-256 -5 -19 51 -104 325 -495 89 -126 162 -235 162 -241 0 -6 -148 -134 -330
-285 -286 -238 -330 -278 -330 -302 0 -15 18 -148 40 -295 37 -247 44 -282
105 -472 171 -530 280 -858 289 -868 3 -3 9 -3 12 1 10 9 -9 76 -88 322 -123
386 -135 430 -298 1148 -17 76 -30 144 -28 151 2 8 145 136 318 286 173 150
325 282 338 294 l22 22 -238 388 -239 389 110 186 c61 102 248 416 415 696
348 583 314 525 309 525 -2 0 -136 -215 -297 -477z"/>
<path d="M6184 4455 c-9 -21 26 -129 121 -375 180 -468 334 -829 384 -899 11
-15 29 -50 39 -77 11 -27 49 -112 85 -188 l66 -139 83 -48 c46 -27 87 -49 92
-49 15 0 -1 26 -109 171 -89 120 -174 246 -215 319 -4 8 -24 83 -43 165 -20
83 -59 213 -87 289 -64 172 -342 801 -366 827 -20 23 -42 25 -50 4z"/>
<path d="M6686 4161 c-9 -14 22 -149 41 -181 28 -48 204 -141 302 -160 69 -13
132 -13 167 0 23 9 26 14 20 43 -11 55 -47 135 -64 143 -10 4 -83 9 -165 12
l-147 4 -57 65 c-60 68 -88 89 -97 74z"/>
<path d="M12230 3098 c0 -7 9 -60 20 -117 18 -89 19 -116 10 -185 -16 -124
-27 -165 -110 -396 -115 -320 -213 -622 -271 -830 -28 -102 -91 -308 -140
-458 -49 -150 -110 -345 -135 -433 -29 -103 -68 -210 -109 -301 -36 -77 -65
-151 -65 -163 0 -30 29 -154 40 -175 14 -25 87 141 115 261 25 112 44 166 184
557 63 176 112 335 160 525 38 149 106 394 151 542 163 538 250 864 250 936 0
41 -76 249 -91 249 -5 0 -9 -6 -9 -12z"/>
</g>
</svg>
